# xmcd
#
# Track frame offsets:
#	222
#	23172
#	40317
#	53205
#	70172
#	93955
#	111772
#	129357
#	150285
#
# Disc length: 2292 seconds
# Revision: 0
# Processed by: cddbd v1.5.2PL0 Copyright (c) Steve Scherf et al.
# Submitted via: dBpowerAMP V12.0
#
DISCID=6808f209
DTITLE=The Robert Cray Band - False Accusations
DYEAR=1985
DGENRE=Blues
TTITLE0=Porch Light
TTITLE1=Change Of Heart, Change Of Mind
TTITLE2=She's Gone
TTITLE3=Playin' In The Dirt
TTITLE4=I've Slipped Her Mind
TTITLE5=False Accusations
TTITLE6=The Last Time (I Get Burned Like This)
TTITLE7=Payin' For It Now
TTITLE8=Sonny
EXTD=
EXTT0=
EXTT1=
EXTT2=
EXTT3=
EXTT4=
EXTT5=
EXTT6=
EXTT7=
EXTT8=
PLAYORDER=
